<svg width="26" height="24" viewBox="0 0 26 24" fill="none" xmlns="http://www.w3.org/2000/svg">
<path d="M5.4121e-05 12.0001C0.00270097 9.61393 0.951762 7.32628 2.63902 5.63903C4.32627 3.95178 6.61392 3.00271 9.00005 3.00007H22.5863L21.2926 1.70757C21.1049 1.51993 20.9995 1.26543 20.9995 1.00007C20.9995 0.734704 21.1049 0.480208 21.2926 0.292568C21.4802 0.104927 21.7347 -0.000488275 22.0001 -0.000488281C22.2654 -0.000488288 22.5199 0.104927 22.7076 0.292568L25.7076 3.29257C25.8005 3.38544 25.8743 3.49573 25.9246 3.61713C25.9749 3.73853 26.0008 3.86865 26.0008 4.00007C26.0008 4.13148 25.9749 4.26161 25.9246 4.38301C25.8743 4.50441 25.8005 4.6147 25.7076 4.70757L22.7076 7.70757C22.5199 7.89521 22.2654 8.00062 22.0001 8.00062C21.7347 8.00062 21.4802 7.89521 21.2926 7.70757C21.1049 7.51993 20.9995 7.26543 20.9995 7.00007C20.9995 6.7347 21.1049 6.48021 21.2926 6.29257L22.5863 5.00007H9.00005C7.14415 5.00205 5.36482 5.74019 4.0525 7.05251C2.74018 8.36484 2.00204 10.1442 2.00005 12.0001C2.00005 12.2653 1.8947 12.5196 1.70716 12.7072C1.51962 12.8947 1.26527 13.0001 1.00005 13.0001C0.734838 13.0001 0.480484 12.8947 0.292947 12.7072C0.105411 12.5196 5.4121e-05 12.2653 5.4121e-05 12.0001ZM25.0001 11.0001C24.7348 11.0001 24.4805 11.1054 24.2929 11.293C24.1054 11.4805 24.0001 11.7349 24.0001 12.0001C23.9981 13.856 23.2599 15.6353 21.9476 16.9476C20.6353 18.2599 18.856 18.9981 17.0001 19.0001H3.4138L4.70755 17.7076C4.80046 17.6147 4.87416 17.5044 4.92445 17.383C4.97473 17.2616 5.00061 17.1315 5.00061 17.0001C5.00061 16.8687 4.97473 16.7386 4.92445 16.6172C4.87416 16.4958 4.80046 16.3855 4.70755 16.2926C4.61464 16.1997 4.50434 16.126 4.38295 16.0757C4.26156 16.0254 4.13145 15.9995 4.00005 15.9995C3.86866 15.9995 3.73855 16.0254 3.61716 16.0757C3.49576 16.126 3.38546 16.1997 3.29255 16.2926L0.292554 19.2926C0.199578 19.3854 0.125819 19.4957 0.0754943 19.6171C0.02517 19.7385 -0.000732422 19.8687 -0.000732422 20.0001C-0.000732422 20.1315 0.02517 20.2616 0.0754943 20.383C0.125819 20.5044 0.199578 20.6147 0.292554 20.7076L3.29255 23.7076C3.38546 23.8005 3.49576 23.8742 3.61716 23.9245C3.73855 23.9747 3.86866 24.0006 4.00005 24.0006C4.13145 24.0006 4.26156 23.9747 4.38295 23.9245C4.50434 23.8742 4.61464 23.8005 4.70755 23.7076C4.80046 23.6147 4.87416 23.5044 4.92445 23.383C4.97473 23.2616 5.00061 23.1315 5.00061 23.0001C5.00061 22.8687 4.97473 22.7386 4.92445 22.6172C4.87416 22.4958 4.80046 22.3855 4.70755 22.2926L3.4138 21.0001H17.0001C19.3862 20.9974 21.6738 20.0484 23.3611 18.3611C25.0483 16.6739 25.9974 14.3862 26.0001 12.0001C26.0001 11.7349 25.8947 11.4805 25.7072 11.293C25.5196 11.1054 25.2653 11.0001 25.0001 11.0001Z" fill="#E0E0E0"/>
</svg>
